Coordinates
version=1
nRows=24
nColumns=38
inDegrees=no

Units are S.I. units (second, meters, Newtons, ...)
If the header above contains a line with 'inDegrees', this indicates whether rotational values are in degrees (yes) or radians (no).

endheader
time	pelvis_tilt	pelvis_list	pelvis_rotation	pelvis_tx	pelvis_ty	pelvis_tz	hip_flexion_r	hip_adduction_r	hip_rotation_r	knee_angle_r	ankle_angle_r	subtalar_angle_r	mtp_angle_r	hip_flexion_l	hip_adduction_l	hip_rotation_l	knee_angle_l	ankle_angle_l	subtalar_angle_l	mtp_angle_l	lumbar_extension	lumbar_bending	lumbar_rotation	arm_flex_r	arm_add_r	arm_rot_r	elbow_flex_r	pro_sup_r	wrist_flex_r	wrist_dev_r	arm_flex_l	arm_add_l	arm_rot_l	elbow_flex_l	pro_sup_l	wrist_flex_l	wrist_dev_l
11.46	2.69209	1.44521	-0.835452	0.63416	1.41404	0.94494	0.0928006	-0.0203429	-0.394842	0.400381	0.132819	0	0	-0.403043	-0.236929	-0.166185	0.251509	-0.00430469	0	0	-0.69219	0.151739	-0.147132	0.561346	-0.838715	0.949427	1.42254	0.833805	0	0	0.419894	-0.718051	0.686653	1.7284	1.12832	0	0
11.47	2.6428	1.45637	-0.78951	0.6363	1.41927	0.941461	0.10677	-0.0218982	-0.39279	0.405641	0.111857	0	0	-0.393894	-0.236561	-0.166904	0.25694	0.00186418	0	0	-0.682777	0.150031	-0.142735	0.521427	-0.844058	0.913629	1.45268	0.860538	0	0	0.380541	-0.717427	0.650629	1.74552	1.15152	0	0
11.48	2.58333	1.46699	-0.734852	0.638695	1.42441	0.938007	0.12627	-0.0257937	-0.391735	0.428764	0.123295	0	0	-0.384912	-0.235953	-0.168051	0.262772	0.00706029	0	0	-0.673876	0.147512	-0.137054	0.480234	-0.847005	0.873755	1.47993	0.916923	0	0	0.357904	-0.723265	0.640661	1.75733	1.18491	0	0
11.49	2.52503	1.47512	-0.682209	0.641136	1.42941	0.934982	0.146455	-0.0297542	-0.388416	0.460154	0.144512	0	0	-0.378636	-0.235721	-0.169157	0.268162	0.00976447	0	0	-0.667771	0.145708	-0.130801	0.444339	-0.850117	0.84333	1.50749	0.940041	0	0	0.337068	-0.730335	0.634958	1.76913	1.19576	0	0
11.5	2.48709	1.47819	-0.649296	0.643348	1.43433	0.932911	0.158989	-0.0296724	-0.382579	0.483911	0.155532	0	0	-0.378024	-0.237594	-0.170273	0.272424	0.00954442	0	0	-0.66703	0.146446	-0.125299	0.417791	-0.851773	0.826039	1.52892	0.954444	0	0	0.315596	-0.737377	0.628269	1.78022	1.20369	0	0
11.51	2.46373	1.47873	-0.630998	0.645427	1.4391	0.93154	0.167133	-0.0269312	-0.37365	0.50328	0.160242	0	0	-0.379878	-0.240445	-0.170888	0.276811	0.00698934	0	0	-0.669703	0.1481	-0.119344	0.393608	-0.853087	0.811229	1.54847	0.966839	0	0	0.293961	-0.743816	0.619993	1.79138	1.213	0	0
11.52	2.44719	1.47746	-0.619441	0.647546	1.44377	0.93063	0.170992	-0.0216382	-0.363709	0.517581	0.16701	0	0	-0.38244	-0.244861	-0.172013	0.282379	0.0026586	0	0	-0.674346	0.150366	-0.112978	0.370302	-0.853909	0.796266	1.56753	0.978791	0	0	0.272386	-0.750215	0.610961	1.80238	1.2157	0	0
11.53	2.65069	1.4396	-0.833975	0.648181	1.44594	0.93183	0.129122	-0.00787184	-0.354399	0.526716	0.171209	0	0	-0.43499	-0.25475	-0.190194	0.28524	0.00308575	0	0	-0.724775	0.178544	-0.112375	0.452833	-0.89588	0.91462	1.63595	0.915415	0	0	0.215196	-0.76325	0.552193	1.82655	1.22193	0	0
11.54	2.40934	1.47474	-0.590238	0.651752	1.45326	0.929282	0.170159	-0.00972196	-0.352711	0.530366	0.183095	0	0	-0.383755	-0.255822	-0.173002	0.297731	-0.0102815	0	0	-0.683232	0.154839	-0.102104	0.316474	-0.850069	0.750057	1.6019	1.04525	0	0	0.223578	-0.760584	0.583855	1.82108	1.24874	0	0
11.55	2.38737	1.47487	-0.571834	0.653871	1.45794	0.928776	0.168127	-0.00471386	-0.350204	0.531928	0.191051	0	0	-0.380242	-0.260889	-0.171709	0.308948	-0.0185235	0	0	-0.685761	0.156064	-0.100243	0.29855	-0.846748	0.741595	1.61455	1.03703	0	0	0.196169	-0.765134	0.566844	1.82715	1.258	0	0
11.56	2.37804	1.47559	-0.565068	0.656087	1.46246	0.928542	0.16396	-0.000785734	-0.349885	0.530561	0.196132	0	0	-0.37508	-0.265239	-0.167646	0.322242	-0.0298745	0	0	-0.688869	0.154867	-0.0946317	0.263041	-0.839477	0.706121	1.62595	1.08846	0	0	0.243252	-0.8057	0.663245	1.82541	1.23118	0	0
11.57	2.35446	1.47767	-0.543896	0.658172	1.46699	0.928473	0.160344	0.0028199	-0.350003	0.526382	0.199713	0	0	-0.366348	-0.268816	-0.162077	0.337163	-0.0432719	0	0	-0.689458	0.154616	-0.0932219	0.240878	-0.831773	0.689734	1.63581	1.10443	0	0	0.219983	-0.808453	0.650351	1.82508	1.24429	0	0
11.58	2.33438	1.47974	-0.526353	0.660202	1.47133	0.928702	0.155373	0.00656362	-0.349391	0.519507	0.202005	0	0	-0.356374	-0.271736	-0.156622	0.353622	-0.0584742	0	0	-0.689782	0.153899	-0.0918146	0.223521	-0.824881	0.681365	1.64464	1.09881	0	0	0.19821	-0.809953	0.638699	1.82352	1.23796	0	0
11.59	2.3128	1.48173	-0.507463	0.662141	1.47561	0.92921	0.149235	0.0106199	-0.349077	0.509948	0.203005	0	0	-0.345178	-0.274232	-0.151618	0.371252	-0.0763571	0	0	-0.689858	0.152992	-0.0895104	0.204355	-0.816111	0.668082	1.64959	1.11689	0	0	0.175531	-0.808784	0.623015	1.82069	1.25114	0	0
11.6	2.2737	1.48444	-0.471648	0.66393	1.47997	0.929818	0.143822	0.0148465	-0.348341	0.498606	0.203048	0	0	-0.331549	-0.275952	-0.147361	0.390121	-0.09535	0	0	-0.687972	0.152714	-0.0899203	0.193057	-0.806342	0.66313	1.64972	1.14088	0	0	0.0822684	-0.762001	0.490152	1.82117	1.32307	0	0
11.61	1.97008	1.4952	-0.172046	0.665609	1.48593	0.929338	0.159402	0.0181561	-0.347492	0.484537	0.201356	0	0	-0.295165	-0.275498	-0.14114	0.408472	-0.11714	0	0	-0.641195	0.145348	-0.0857987	0.179603	-0.785746	0.669728	1.60471	1.15121	0	0	0.146424	-0.789823	0.616427	1.77556	1.27913	0	0
11.62	1.96933	1.49581	-0.175964	0.667381	1.49026	0.930486	0.147922	0.0232597	-0.346474	0.469141	0.196852	0	0	-0.286272	-0.276137	-0.13874	0.427315	-0.137696	0	0	-0.642474	0.142935	-0.0807728	0.163808	-0.778493	0.660148	1.6043	1.16072	0	0	0.12573	-0.786059	0.59905	1.77343	1.29046	0	0
11.63	2.31917	1.44789	-0.500855	0.667033	1.49798	0.937085	0.0509468	0.0738246	-0.378812	0.39284	0.16338	0	0	-0.33432	-0.323491	-0.137717	0.430227	-0.164668	0	0	-0.689065	0.183155	-0.0771108	0.146657	-0.770717	0.651964	1.60295	1.16894	0	0	0.106469	-0.783875	0.586374	1.7706	1.29483	0	0
11.64	2.36968	1.47544	-0.592947	0.669836	1.49621	0.934909	0.0867134	0.0380361	-0.33658	0.441149	0.191133	0	0	-0.311926	-0.279258	-0.14951	0.467551	-0.171713	0	0	-0.685585	0.158166	-0.0813614	0.214613	-0.804304	0.746855	1.64468	1.11353	0	0	0.0541204	-0.78285	0.525585	1.77546	1.30558	0	0
11.65	2.37861	1.47716	-0.609097	0.671643	1.50027	0.936152	0.075997	0.0416989	-0.329508	0.427328	0.190838	0	0	-0.302255	-0.276711	-0.150202	0.488381	-0.189922	0	0	-0.68572	0.152591	-0.0732568	0.199185	-0.79943	0.739858	1.64189	1.11842	0	0	0.0474356	-0.78029	0.526409	1.76705	1.30489	0	0
11.66	2.38927	1.47856	-0.627616	0.673452	1.50433	0.937396	0.0643587	0.0460273	-0.320246	0.411501	0.185032	0	0	-0.293521	-0.273707	-0.15214	0.508302	-0.203745	0	0	-0.685586	0.14676	-0.0632028	0.180217	-0.794219	0.728334	1.63952	1.12272	0	0	0.0470762	-0.778027	0.534726	1.7556	1.30726	0	0
11.67	1.95182	1.501	-0.198212	0.67746	1.5103	0.936707	0.0965744	0.0594514	-0.273607	0.404022	0.287818	0	0	-0.239771	-0.269684	-0.150658	0.527734	-0.216266	0	0	-0.641783	0.118381	-0.0377992	0.097847	-0.746046	0.627258	1.587	1.22172	0	0	0.0845955	-0.774215	0.59035	1.73115	1.31699	0	0
11.68	2.31649	1.49089	-0.569848	0.67926	1.51223	0.939448	0.055996	0.0634487	-0.265333	0.388288	0.283028	0	0	-0.260468	-0.2673	-0.157063	0.545252	-0.214802	0	0	-0.689943	0.116332	-0.0284858	0.0766144	-0.751773	0.599916	1.62731	1.23213	0	0	0.0681744	-0.784156	0.568842	1.75725	1.32097	0	0
11.69	2.35503	1.49147	-0.615031	0.680665	1.51615	0.940797	0.040193	0.066225	-0.257583	0.368333	0.269996	0	0	-0.255085	-0.26238	-0.159861	0.55882	-0.210239	0	0	-0.688985	0.111243	-0.0218826	0.0666874	-0.746141	0.598289	1.6212	1.23381	0	0	0.0697798	-0.78218	0.578937	1.74361	1.31839	0	0
